<svg xmlns="http://www.w3.org/2000/svg" viewBox="0 0 48 48" width="48" height="48">
  <path fill="#4285f4" d="M24 26.9c3.9-3.9 7.8-7.8 11.7-11.7c0.8-0.8 2.1-0.8 2.9 0c0.8 0.8 0.8 2.1 0 2.9L27.9 28.8c-1.1 1.1-2.8 1.1-3.9 0L13.3 18.1c-0.8-0.8-0.8-2.1 0-2.9c0.8-0.8 2.1-0.8 2.9 0L24 26.9z"/>
  <path fill="#34a853" d="M44.5 20v3.5c0 13.3-10.7 24-24 24s-24-10.7-24-24s10.7-24 24-24c5.3 0 10.3 1.7 14.4 4.8l-2.5 2.5c-3.1-2.3-7-3.6-11.9-3.6c-10.5 0-19 8.5-19 19s8.5 19 19 19s19-8.5 19-19v-2H24v-5h20.5z"/>
  <path fill="#ea4335" d="M44.5 20H24v-5h20.5"/>
  <path fill="#fbbc04" d="M44.5 20v3.5c0 13.3-10.7 24-24 24s-24-10.7-24-24"/>
</svg>
